<svg width="100" height="100" viewBox="0 0 100 100" fill="none" xmlns="http://www.w3.org/2000/svg">
    <rect width="100" height="100" rx="8" fill="black"/>
    <path d="M34.6935 13.1425C29.2171 14.6518 23.778 16.2929 18.3807 18.0645C17.8879 18.2241 17.4498 18.519 17.1164 18.9155C16.7829 19.3119 16.5675 19.7941 16.4948 20.307C13.3093 44.2098 20.6693 61.6495 29.4495 73.138C33.167 78.0507 37.5996 82.3787 42.5997 85.9777C44.5892 87.3807 46.3487 88.3927 47.7345 89.0425C48.4245 89.3702 48.988 89.5887 49.4193 89.721C49.6079 89.7872 49.8023 89.8353 50 89.8647C50.1954 89.833 50.3877 89.7849 50.575 89.721C51.012 89.5887 51.5755 89.3702 52.2655 89.0425C53.6455 88.3927 55.4108 87.375 57.4003 85.9777C62.4004 82.3787 66.833 78.0507 70.5505 73.138C79.3308 61.6553 86.6908 44.2098 83.5053 20.307C83.4331 19.7939 83.218 19.3114 82.8844 18.9148C82.5509 18.5182 82.1124 18.2235 81.6193 18.0645C77.876 16.8398 71.5568 14.8445 65.3065 13.1482C58.924 11.4175 53.0532 10.1353 50 10.1353C46.9525 10.1353 41.076 11.4118 34.6935 13.1425ZM33.164 7.22C39.4028 5.52375 46.0325 4 50 4C53.9675 4 60.5973 5.52375 66.836 7.22C73.2185 8.945 79.6528 10.9862 83.4362 12.2225C85.0181 12.7449 86.4206 13.7029 87.4824 14.9865C88.5443 16.2701 89.2226 17.8273 89.4393 19.479C92.8663 45.2218 84.914 64.3003 75.2655 76.9215C71.174 82.3206 66.2955 87.0752 60.7928 91.0263C58.89 92.3935 56.874 93.5958 54.7668 94.62C53.1568 95.379 51.426 96 50 96C48.574 96 46.849 95.379 45.2332 94.62C43.126 93.5958 41.11 92.3935 39.2073 91.0263C33.7047 87.075 28.8261 82.3205 24.7345 76.9215C15.086 64.3003 7.13375 45.2218 10.5608 19.479C10.7775 17.8273 11.4557 16.2701 12.5176 14.9865C13.5794 13.7029 14.9819 12.7449 16.5637 12.2225C22.0561 10.4217 27.5911 8.75367 33.164 7.22Z" fill="white"/>
    <path d="M39.9375 37.0625C39.9379 35.2618 40.4214 33.4942 41.3377 31.9441C42.254 30.394 43.5695 29.1182 45.1469 28.2497C46.7243 27.3813 48.5059 26.952 50.3057 27.0067C52.1056 27.0614 53.8578 27.5981 55.3795 28.5608C56.9013 29.5234 58.1368 30.8768 58.9573 32.4797C59.7777 34.0826 60.153 35.8763 60.044 37.6737C59.9351 39.471 59.3457 41.2062 58.3376 42.6982C57.3295 44.1903 55.9394 45.3844 54.3125 46.1561L54.3125 67.25L50 71.5625L45.6875 67.25L48.5625 64.375L45.6875 61.5L48.5625 58.625L45.6875 55.75L48.5625 52.875L45.6875 50L45.6875 46.1561C43.9667 45.3399 42.5129 44.0521 41.4951 42.4423C40.4772 40.8326 39.9371 38.967 39.9375 37.0625ZM47.125 34.1875C47.125 34.95 47.4279 35.6813 47.9671 36.2204C48.5062 36.7596 49.2375 37.0625 50 37.0625C50.7625 37.0625 51.4938 36.7596 52.0329 36.2204C52.5721 35.6813 52.875 34.95 52.875 34.1875C52.875 33.425 52.5721 32.6937 52.0329 32.1546C51.4938 31.6154 50.7625 31.3125 50 31.3125C49.2375 31.3125 48.5062 31.6154 47.9671 32.1546C47.4279 32.6937 47.125 33.425 47.125 34.1875Z" fill="white"/>
</svg>
